<svg width="40" height="40" viewBox="0 0 40 40" fill="none" xmlns="http://www.w3.org/2000/svg">
<path d="M37.0438 24.3258L33.9499 22.5403C34.2622 20.8564 34.2622 19.129 33.9499 17.4452L37.0438 15.6597C37.3996 15.4565 37.5594 15.0355 37.4432 14.6436C36.637 12.0597 35.2644 9.72262 33.4706 7.77747C33.1946 7.47989 32.7443 7.40731 32.3957 7.61053L29.3018 9.39601C28.0018 8.27827 26.5058 7.41456 24.8862 6.84844V3.28474C24.8862 2.87829 24.603 2.52265 24.2035 2.43555C21.5382 1.84039 18.8074 1.86942 16.2728 2.43555C15.8734 2.52265 15.5901 2.87829 15.5901 3.28474V6.85569C13.9778 7.42908 12.4817 8.29279 11.1745 9.40327L8.08788 7.61779C7.73201 7.41456 7.28899 7.47989 7.01302 7.78472C5.21916 9.72262 3.84653 12.0597 3.04039 14.6508C2.91692 15.0428 3.08396 15.4637 3.43983 15.667L6.53369 17.4524C6.2214 19.1363 6.2214 20.8637 6.53369 22.5476L3.43983 24.333C3.08396 24.5363 2.92419 24.9572 3.04039 25.3492C3.84653 27.933 5.21916 30.2701 7.01302 32.2153C7.28899 32.5129 7.73927 32.5854 8.08788 32.3822L11.1817 30.5967C12.4817 31.7145 13.9778 32.5782 15.5974 33.1443V36.7153C15.5974 37.1217 15.8806 37.4774 16.2801 37.5644C18.9454 38.1596 21.6762 38.1306 24.2108 37.5644C24.6102 37.4774 24.8935 37.1217 24.8935 36.7153V33.1443C26.5058 32.5709 28.0018 31.7072 29.3091 30.5967L32.403 32.3822C32.7588 32.5854 33.2019 32.5201 33.4778 32.2153C35.2717 30.2774 36.6443 27.9403 37.4505 25.3492C37.5594 24.95 37.3996 24.529 37.0438 24.3258ZM20.2382 25.7992C17.0354 25.7992 14.4281 23.1935 14.4281 19.9927C14.4281 16.7919 17.0354 14.1863 20.2382 14.1863C23.441 14.1863 26.0482 16.7919 26.0482 19.9927C26.0482 23.1935 23.441 25.7992 20.2382 25.7992Z" fill="#797979"/>
<path d="M16.3684 16.0898L34.4567 34.1782H31.8903L13.802 16.0898L16.3684 16.0898Z" fill="#919CA2"/>
<path d="M34.4568 31.6114L16.3684 13.523L16.3684 16.0894L34.4568 34.1777L34.4568 31.6114Z" fill="#A8B5BC"/>
<path d="M14.4203 16.7075L16.9867 14.1411L8.79286 5.94727L6.19556 8.51365L14.4203 16.7075Z" fill="#894622"/>
<path d="M11.5758 19.5216L13.4155 21.3614L21.6094 13.1675L19.7696 11.2969L11.5758 19.5216Z" fill="#773D1D"/>
<path d="M11.5757 19.5208L10.0452 17.9902H13.1063L11.5757 19.5208Z" fill="#773D1D"/>
<path d="M19.7849 11.3118L18.2544 9.78125L18.2544 12.8424L19.7849 11.3118Z" fill="#773D1D"/>
<path d="M34.4568 5.91211L25.8715 8.21253L32.1564 14.4974L34.4568 5.91211ZM6.09066 34.2782L12.3755 34.2782L12.3755 27.9934L6.09066 27.9934L6.09066 34.2782ZM29.5582 10.8107L29.0139 10.2664L8.68882 30.5915L9.2331 31.1358L9.77739 31.6801L30.1025 11.355L29.5582 10.8107Z" fill="#9F00A2"/>
</svg>
