<svg width="16" height="16" viewBox="0 0 16 16" fill="none" xmlns="http://www.w3.org/2000/svg">
<g clip-path="url(#clip0_845_123)">
<path d="M4.15708 13.13C3.58508 13.13 3.08674 13.0217 2.66208 12.805C2.24608 12.5883 1.92108 12.2763 1.68708 11.869C1.46174 11.453 1.34908 10.9633 1.34908 10.4V6.11C1.34908 5.538 1.46174 5.04833 1.68708 4.641C1.92108 4.23367 2.24608 3.92167 2.66208 3.705C3.08674 3.48833 3.58508 3.38 4.15708 3.38C4.72908 3.38 5.22308 3.49267 5.63908 3.718C6.05508 3.93467 6.37575 4.24667 6.60108 4.654C6.82641 5.06133 6.93908 5.54667 6.93908 6.11H5.76908C5.76908 5.57267 5.62608 5.161 5.34008 4.875C5.06274 4.58033 4.66841 4.433 4.15708 4.433C3.64574 4.433 3.24274 4.576 2.94808 4.862C2.66208 5.148 2.51908 5.55967 2.51908 6.097V10.4C2.51908 10.9373 2.66208 11.3533 2.94808 11.648C3.24274 11.934 3.64574 12.077 4.15708 12.077C4.66841 12.077 5.06274 11.934 5.34008 11.648C5.62608 11.3533 5.76908 10.9373 5.76908 10.4H6.93908C6.93908 10.9547 6.82641 11.44 6.60108 11.856C6.37575 12.2633 6.05508 12.5797 5.63908 12.805C5.22308 13.0217 4.72908 13.13 4.15708 13.13ZM11.952 13.13C11.38 13.13 10.8817 13.0217 10.457 12.805C10.041 12.5883 9.716 12.2763 9.482 11.869C9.25667 11.453 9.144 10.9633 9.144 10.4V6.11C9.144 5.538 9.25667 5.04833 9.482 4.641C9.716 4.23367 10.041 3.92167 10.457 3.705C10.8817 3.48833 11.38 3.38 11.952 3.38C12.524 3.38 13.018 3.49267 13.434 3.718C13.85 3.93467 14.1707 4.24667 14.396 4.654C14.6213 5.06133 14.734 5.54667 14.734 6.11H13.564C13.564 5.57267 13.421 5.161 13.135 4.875C12.8577 4.58033 12.4633 4.433 11.952 4.433C11.4407 4.433 11.0377 4.576 10.743 4.862C10.457 5.148 10.314 5.55967 10.314 6.097V10.4C10.314 10.9373 10.457 11.3533 10.743 11.648C11.0377 11.9427 11.4407 12.09 11.952 12.09C12.4633 12.09 12.8577 11.9427 13.135 11.648C13.421 11.3533 13.564 10.9373 13.564 10.4V9.23H11.64V8.164H14.734V10.4C14.734 10.9547 14.6213 11.44 14.396 11.856C14.1707 12.2633 13.85 12.5797 13.434 12.805C13.018 13.0217 12.524 13.13 11.952 13.13Z" fill="#9A47AF"/>
</g>
<defs>
<clipPath id="clip0_845_123">
<rect width="16" height="16" fill="white"/>
</clipPath>
</defs>
</svg>
